<svg xmlns="http://www.w3.org/2000/svg" width="80" height="80" viewBox="0 0 80 80"><circle cx="40" cy="36" r="9.5" fill="none" stroke="none" stroke-width="1" opacity="0.28" /><path d="M 30.5 36 A 9.5 9.5 0 1 0 49.5 36 A 9.5 9.5 0 1 0 30.5 36" stroke="#B04A4A" fill="none" stroke-width="3" /><circle cx="40" cy="36" r="15.2" fill="none" stroke="none" stroke-width="1" opacity="0.21000000000000002" /><path d="M 24.8 36 A 15.2 15.2 0 1 0 55.2 36 A 15.2 15.2 0 1 0 24.8 36" stroke="#B04A4A" fill="none" stroke-width="2.4" /><circle cx="40" cy="36" r="20.9" fill="none" stroke="none" stroke-width="1" opacity="0.14" /><path d="M 19.1 36 A 20.9 20.9 0 1 0 60.9 36 A 20.9 20.9 0 1 0 19.1 36" stroke="#B04A4A" fill="none" stroke-width="1.8" /><circle cx="40" cy="36" r="4.27" fill="#B04A4A" stroke="none" stroke-width="1" opacity="0.95" /><polygon points="36.2,25.55 40.95,25.55 38.1,35.05 45.7,35.05 34.3,48.35 39.05,37.9 32.4,37.9" fill="white" stroke="none" stroke-width="1" opacity="0.98" /><text x="40" y="69" fill="#B04A4A" font-size="9" font-family="Liberation Sans" font-weight="700" text-anchor="middle">ROOT</text></svg>