<svg xmlns="http://www.w3.org/2000/svg" width="80" height="80" viewBox="0 0 80 80"><circle cx="40" cy="40" r="9" fill="none" stroke="none" stroke-width="1" opacity="0.28" /><path d="M 31.0 40 A 9.0 9.0 0 1 0 49.0 40 A 9.0 9.0 0 1 0 31.0 40" stroke="#B8892E" fill="none" stroke-width="3" /><circle cx="40" cy="40" r="14.4" fill="none" stroke="none" stroke-width="1" opacity="0.21000000000000002" /><path d="M 25.6 40 A 14.4 14.4 0 1 0 54.4 40 A 14.4 14.4 0 1 0 25.6 40" stroke="#B8892E" fill="none" stroke-width="2.4" /><circle cx="40" cy="40" r="19.8" fill="none" stroke="none" stroke-width="1" opacity="0.14" /><path d="M 20.2 40 A 19.8 19.8 0 1 0 59.8 40 A 19.8 19.8 0 1 0 20.2 40" stroke="#B8892E" fill="none" stroke-width="1.8" /><circle cx="40" cy="40" r="4.05" fill="#B8892E" stroke="none" stroke-width="1" opacity="0.95" /><text x="40" y="69" fill="#B8892E" font-size="9" font-family="Liberation Sans" font-weight="700" text-anchor="middle">ANOM</text></svg>