<svg xmlns="http://www.w3.org/2000/svg" width="240" height="136" viewBox="0 0 240 136"><rect x="9" y="15" width="222" height="106" rx="22" fill="none" stroke="#B04A4A" stroke-width="2" opacity="0.18" /><rect x="16" y="22" width="208" height="92" rx="18" fill="#FCECEC" stroke="#B04A4A" stroke-width="2.4" /><rect x="28" y="33" width="184" height="13" rx="6" fill="#B04A4A" stroke="none" stroke-width="1" opacity="0.9" /><circle cx="34" cy="50" r="3.2" fill="#B04A4A" stroke="none" stroke-width="1" opacity="0.95" /><line x1="41" y1="50" x2="202" y2="50" stroke="#D2D8DF" stroke-width="1.4" /><circle cx="34" cy="66" r="3.2" fill="#B04A4A" stroke="none" stroke-width="1" opacity="0.95" /><line x1="41" y1="66" x2="202" y2="66" stroke="#D2D8DF" stroke-width="1.4" /><circle cx="34" cy="82" r="3.2" fill="#B04A4A" stroke="none" stroke-width="1" opacity="0.95" /><line x1="41" y1="82" x2="202" y2="82" stroke="#D2D8DF" stroke-width="1.4" /><path d="M 70 96 Q 88 88 105 96 Q 118 102 132 88 Q 148 72 167 86" stroke="#B04A4A" fill="none" stroke-width="2.2" /><text x="62" y="50" fill="#18232F" font-size="16" font-family="Liberation Sans" font-weight="700" text-anchor="start">Root cause</text><text x="62" y="72" fill="#873B3B" font-size="12" font-family="Liberation Sans" font-weight="400" text-anchor="start">db lock</text><circle cx="204" cy="68" r="5.8" fill="none" stroke="none" stroke-width="1" opacity="0.28" /><path d="M 198.2 68.0 A 5.8 5.8 0 1 0 209.8 68.0 A 5.8 5.8 0 1 0 198.2 68.0" stroke="#B04A4A" fill="none" stroke-width="3" /><circle cx="204" cy="68" r="9.28" fill="none" stroke="none" stroke-width="1" opacity="0.21000000000000002" /><path d="M 194.72 68.0 A 9.28 9.28 0 1 0 213.28 68.0 A 9.28 9.28 0 1 0 194.72 68.0" stroke="#B04A4A" fill="none" stroke-width="2.4" /><circle cx="204" cy="68" r="12.76" fill="none" stroke="none" stroke-width="1" opacity="0.14" /><path d="M 191.24 68.0 A 12.76 12.76 0 1 0 216.76 68.0 A 12.76 12.76 0 1 0 191.24 68.0" stroke="#B04A4A" fill="none" stroke-width="1.8" /><circle cx="204" cy="68" r="2.61" fill="#B04A4A" stroke="none" stroke-width="1" opacity="0.95" /><polygon points="201.68,61.62 204.58,61.62 202.84,67.42 207.48,67.42 200.52,75.54 203.42,69.16 199.36,69.16" fill="white" stroke="none" stroke-width="1" opacity="0.98" /><polygon points="169,23 190,23 184,36 198,50 180,50 186,64 166,49 178,38" fill="#B04A4A" stroke="none" stroke-width="1" opacity="0.95" /></svg>