<svg xmlns="http://www.w3.org/2000/svg" width="240" height="136" viewBox="0 0 240 136"><rect x="9" y="15" width="222" height="106" rx="22" fill="none" stroke="#B8892E" stroke-width="2" opacity="0.18" /><rect x="16" y="22" width="208" height="92" rx="18" fill="#FFF4E8" stroke="#B8892E" stroke-width="2.4" /><rect x="28" y="33" width="184" height="13" rx="6" fill="#B8892E" stroke="none" stroke-width="1" opacity="0.9" /><circle cx="34" cy="50" r="3.2" fill="#B8892E" stroke="none" stroke-width="1" opacity="0.95" /><line x1="41" y1="50" x2="202" y2="50" stroke="#D2D8DF" stroke-width="1.4" /><circle cx="34" cy="66" r="3.2" fill="#B8892E" stroke="none" stroke-width="1" opacity="0.95" /><line x1="41" y1="66" x2="202" y2="66" stroke="#D2D8DF" stroke-width="1.4" /><circle cx="34" cy="82" r="3.2" fill="#B8892E" stroke="none" stroke-width="1" opacity="0.95" /><line x1="41" y1="82" x2="202" y2="82" stroke="#D2D8DF" stroke-width="1.4" /><path d="M 70 96 Q 88 88 105 96 Q 118 102 132 88 Q 148 72 167 86" stroke="#B8892E" fill="none" stroke-width="2.2" /><text x="62" y="50" fill="#18232F" font-size="16" font-family="Liberation Sans" font-weight="700" text-anchor="start">User symptom</text><text x="62" y="72" fill="#805B1A" font-size="12" font-family="Liberation Sans" font-weight="400" text-anchor="start">timeout</text><circle cx="206" cy="68" r="5.2" fill="none" stroke="none" stroke-width="1" opacity="0.28" /><path d="M 200.8 68.0 A 5.2 5.2 0 1 0 211.2 68.0 A 5.2 5.2 0 1 0 200.8 68.0" stroke="#B8892E" fill="none" stroke-width="3" /><circle cx="206" cy="68" r="8.32" fill="none" stroke="none" stroke-width="1" opacity="0.21000000000000002" /><path d="M 197.68 68.0 A 8.32 8.32 0 1 0 214.32 68.0 A 8.32 8.32 0 1 0 197.68 68.0" stroke="#B8892E" fill="none" stroke-width="2.4" /><circle cx="206" cy="68" r="11.44" fill="none" stroke="none" stroke-width="1" opacity="0.14" /><path d="M 194.56 68.0 A 11.440000000000001 11.440000000000001 0 1 0 217.44 68.0 A 11.440000000000001 11.440000000000001 0 1 0 194.56 68.0" stroke="#B8892E" fill="none" stroke-width="1.8" /><circle cx="206" cy="68" r="2.34" fill="#B8892E" stroke="none" stroke-width="1" opacity="0.95" /></svg>